<?xml version='1.0' encoding='iso-8859-1'?>
<svg version="1.1" xmlns="http://www.w3.org/2000/svg" viewBox="0 0 463 463" xmlns:xlink="http://www.w3.org/1999/xlink" enable-background="new 0 0 463 463">
  <g>
    <path d="m455.5,344.001h-24c-9.253,0-30.236-8.188-54.533-17.668-10.477-4.088-21.934-8.557-33.967-12.955v-123.611c9.29-3.138 16-11.93 16-22.266v-5.449c12.534,4.178 24.725,14.078 25.001,37.537 0.048,4.112 3.396,7.412 7.497,7.412 0.03,0 0.061,0 0.09,0 4.143-0.049 7.46-3.446 7.411-7.588-0.33-28.087-14.34-46.247-39.999-52.737v-1.003c9.335-3.739 19.634-5.362 30.024-4.55 17.777,1.388 33.64,9.598 44.663,23.118 1.482,1.818 3.641,2.761 5.817,2.76 1.666,0 3.343-0.552 4.734-1.688 3.211-2.618 3.691-7.342 1.073-10.552-13.64-16.728-33.216-26.882-55.12-28.593-14.706-1.146-29.278,1.699-42.083,7.949 3.525-6.236 8.681-12.107 14.919-16.619 8.3-6.002 25.85-14.877 50.123-6.875 3.937,1.297 8.175-0.841 9.472-4.775s-0.841-8.174-4.774-9.471c-22.687-7.479-45.276-4.293-63.611,8.967-0.762,0.551-1.506,1.121-2.242,1.701 6.054-10.502 14.807-17.857 25.18-20.235 4.037-0.925 6.56-4.948 5.635-8.986s-4.942-6.559-8.986-5.635c-16.784,3.846-30.415,16.651-38.324,34.396-7.909-17.745-21.54-30.55-38.324-34.396-4.043-0.928-8.062,1.598-8.986,5.635s1.598,8.061 5.635,8.986c10.373,2.377 19.126,9.733 25.18,20.235-0.735-0.58-1.48-1.151-2.242-1.701-18.335-13.261-40.925-16.445-63.611-8.967-3.934,1.297-6.071,5.538-4.774,9.471 1.298,3.934 5.535,6.072 9.472,4.775 24.271-8.002 41.823,0.871 50.123,6.875 6.237,4.511 11.393,10.382 14.918,16.617-12.806-6.251-27.378-9.097-42.082-7.947-21.904,1.71-41.48,11.865-55.12,28.593-2.618,3.21-2.138,7.935 1.073,10.552 1.392,1.135 3.068,1.688 4.734,1.688 2.177,0 4.335-0.942 5.817-2.76 11.023-13.52 26.886-21.73 44.663-23.118 10.392-0.812 20.69,0.811 30.024,4.55v1.003c-25.659,6.489-39.669,24.65-39.999,52.737-0.049,4.142 3.269,7.539 7.411,7.588 0.029,0 0.06,0 0.09,0 4.101,0 7.449-3.3 7.497-7.412 0.094-8.028 0.347-29.17 25.001-37.319v5.23c0,10.336 6.71,19.128 16,22.266v118.295c-31.7-10.866-66.079-20.061-96.5-20.061s-64.8,9.195-96.5,20.061v-150.294c9.29-3.138 16-11.93 16-22.266v-5.449c12.534,4.178 24.725,14.078 25.001,37.537 0.048,4.112 3.396,7.412 7.497,7.412 0.03,0 0.061,0 0.09,0 4.143-0.049 7.46-3.446 7.411-7.588-0.33-28.087-14.34-46.247-39.999-52.737v-1.003c9.335-3.739 19.633-5.362 30.024-4.55 17.777,1.388 33.64,9.598 44.663,23.118 1.482,1.818 3.641,2.761 5.817,2.76 1.666,0 3.343-0.552 4.734-1.688 3.211-2.618 3.691-7.342 1.073-10.552-13.64-16.728-33.216-26.882-55.12-28.593-14.706-1.146-29.278,1.699-42.083,7.949 3.525-6.236 8.681-12.107 14.919-16.619 8.3-6.002 25.85-14.877 50.123-6.875 3.937,1.296 8.175-0.841 9.472-4.775 1.297-3.934-0.841-8.174-4.774-9.471-22.687-7.479-45.277-4.293-63.611,8.967-0.762,0.551-1.506,1.121-2.242,1.701 6.054-10.502 14.807-17.857 25.18-20.235 4.037-0.925 6.56-4.948 5.635-8.986s-4.942-6.558-8.986-5.635c-16.784,3.846-30.415,16.651-38.324,34.396-7.909-17.745-21.54-30.55-38.324-34.396-4.045-0.926-8.062,1.598-8.986,5.635-0.925,4.038 1.598,8.061 5.635,8.986 11.883,2.723 21.647,11.972 27.653,25.011-1.604-1.369-3.278-2.694-5.028-3.959-21.118-15.274-47.104-19.46-71.298-11.485-3.934,1.297-6.071,5.538-4.774,9.471 1.297,3.935 5.534,6.071 9.472,4.775 19.567-6.451 40.638-3.027 57.81,9.393 5.407,3.911 9.977,8.476 13.407,13.229-12.357-5.646-26.248-8.173-40.258-7.077-21.904,1.71-41.48,11.865-55.12,28.593-2.618,3.21-2.138,7.935 1.073,10.552 1.392,1.135 3.068,1.688 4.734,1.688 2.177,0 4.335-0.942 5.817-2.76 11.023-13.52 26.886-21.73 44.663-23.118 10.392-0.811 20.69,0.811 30.024,4.55v1.003c-25.659,6.489-39.669,24.65-39.999,52.737-0.049,4.142 3.269,7.539 7.411,7.588 0.029,0 0.06,0 0.09,0 4.101,0 7.449-3.3 7.497-7.412 0.094-8.028 0.347-29.17 25.001-37.319v5.23c0,10.336 6.71,19.128 16,22.266v155.611c-12.032,4.398-23.49,8.867-33.967,12.955-24.297,9.48-45.28,17.668-54.533,17.668h-24c-4.143,0-7.5,3.358-7.5,7.5s3.357,7.5 7.5,7.5h448c4.143,0 7.5-3.358 7.5-7.5s-3.357-7.499-7.5-7.499zm-128.5-184.65c2.653-0.229 5.482-0.35 8.5-0.35 2.154,0 5.108,0.001 8.5,0.243v8.257c0,4.687-3.813,8.5-8.5,8.5s-8.5-3.813-8.5-8.5v-8.15zm-208-32c2.653-0.229 5.482-0.35 8.5-0.35 2.154,0 5.108,0.001 8.5,0.243v8.257c0,4.687-3.813,8.5-8.5,8.5s-8.5-3.813-8.5-8.5v-8.15zm-37.004,216.65c3.059-1.186 6.216-2.417 9.489-3.694 40.349-15.744 95.609-37.306 140.015-37.306s99.666,21.562 140.015,37.306c3.273,1.277 6.43,2.508 9.489,3.694h-299.008z"/>
    <path d="m311.5,376.001h-144c-4.143,0-7.5,3.358-7.5,7.5s3.357,7.5 7.5,7.5h144c4.143,0 7.5-3.358 7.5-7.5s-3.357-7.5-7.5-7.5z"/>
    <path d="m135.5,376.001h-64c-4.143,0-7.5,3.358-7.5,7.5s3.357,7.5 7.5,7.5h64c4.143,0 7.5-3.358 7.5-7.5s-3.357-7.5-7.5-7.5z"/>
    <path d="m359.5,376.001h-16c-4.143,0-7.5,3.358-7.5,7.5s3.357,7.5 7.5,7.5h16c4.143,0 7.5-3.358 7.5-7.5s-3.357-7.5-7.5-7.5z"/>
    <path d="m295.5,408.001h-79.998c-4.143,0-7.5,3.358-7.5,7.5s3.357,7.5 7.5,7.5h79.998c4.143,0 7.5-3.358 7.5-7.5s-3.357-7.5-7.5-7.5z"/>
    <path d="m183.501,408.001h-16.001c-4.143,0-7.5,3.358-7.5,7.5s3.357,7.5 7.5,7.5h16.001c4.143,0 7.5-3.358 7.5-7.5s-3.357-7.5-7.5-7.5z"/>
  </g>
</svg>
